<?xml version="1.0" encoding="UTF-8" standalone="no"?>
<svg width="28px" height="28px" viewBox="0 0 28 28" version="1.1" xmlns="http://www.w3.org/2000/svg" xmlns:xlink="http://www.w3.org/1999/xlink">
    <!-- Generator: Sketch 3.6.1 (26313) - http://www.bohemiancoding.com/sketch -->
    <title>check-circle</title>
    <desc>Created with Sketch.</desc>
    <defs></defs>
    <g id="Page-1" stroke="none" stroke-width="1" fill="none" fill-rule="evenodd">
        <g id="plugin" transform="translate(-1387.000000, -110.000000)">
            <g id="check-circle" transform="translate(1387.000000, 110.000000)">
                <path d="M14,6.21724894e-16 C17.7130309,3.10862447e-16 21.2739856,1.47499577 23.8994949,4.10050506 C26.5250042,6.72601436 28,10.2869691 28,14 C28,21.7319865 21.7319865,28 14,28 C10.2869691,28 6.72601436,26.5250042 4.10050506,23.8994949 C1.47499577,21.2739856 3.10862447e-16,17.7130309 0,14 C-1.86517468e-15,10.2869691 1.47499577,6.72601436 4.10050506,4.10050506 C6.72601436,1.47499577 10.2869691,6.21724894e-16 14,0 L14,6.21724894e-16 Z" id="Shape" fill="#07AE88"></path>
                <path d="M12.6,20.3 L22.4,10.5 L20.426,8.526 L12.6,16.338 L8.274,12.026 L6.3,14 L12.6,20.3 L12.6,20.3 Z" id="Path" fill="#FFFFFF"></path>
            </g>
        </g>
    </g>
</svg>