<?xml version="1.0" encoding="UTF-8" standalone="no"?>
<svg width="102px" height="41px" viewBox="0 0 102 41" version="1.1" xmlns="http://www.w3.org/2000/svg" xmlns:xlink="http://www.w3.org/1999/xlink">
    <!-- Generator: Sketch 3.6.1 (26313) - http://www.bohemiancoding.com/sketch -->
    <title>arimo_logo_RGB_lightBG</title>
    <desc>Created with Sketch.</desc>
    <defs></defs>
    <g id="Page-1" stroke="none" stroke-width="1" fill="none" fill-rule="evenodd">
        <g id="plugin" transform="translate(-1132.000000, -16.000000)">
            <g id="arimo_logo_RGB_lightBG" transform="translate(1132.000000, 16.000000)">
                <path d="M52.9813095,32.1064505 L53.8531667,32.1064505 L58.6943214,21.785005 L58.6943214,32.0727574 L61.7555357,32.0727574 L61.7555357,14.9495743 L58.7457262,14.9495743 L52.9813095,27.8621386 L52.9989167,27.8621386 L47.2349048,14.9495743 L44.2250952,14.9495743 L44.2250952,32.0727574 L47.2865119,32.0727574 L47.2865119,21.785005 L52.1276667,32.1064505 L52.9989167,32.1064505 L52.9813095,32.1064505" id="Fill-1" fill="#0A0A08"></path>
                <path d="M23.3320952,25.3948317 C23.7781429,25.3948317 27.0947619,25.4240594 28.3357619,25.3254158 C30.6623333,25.1405099 32.2344286,22.8800297 31.6877976,20.6057475 C31.2852619,18.9300248 29.9671548,17.7454901 28.234369,17.6553713 C26.6327262,17.5731683 25.024,17.6151832 23.4183095,17.6040198 C23.3905833,17.6040198 23.3628571,17.6263465 23.3320952,17.6387277 L23.3320952,25.3948317 L23.3320952,25.3948317 Z M35.2201548,32.1157871 C33.9736905,32.1157871 32.8071667,32.1226881 31.6408452,32.1074653 C31.5299405,32.1056386 31.388881,31.9946139 31.3154167,31.8941436 C30.4279762,30.6787574 29.5466071,29.458297 28.6737381,28.2321535 C28.5482619,28.0547574 28.4221786,27.9857475 28.19875,27.989401 C26.7049762,28.0182228 23.322381,27.989401 23.322381,27.989401 L23.322381,32.0993465 L20.2725,32.0993465 L20.2725,14.9499802 C20.3730833,14.9499802 25.0490952,14.9434851 27.279131,14.9524158 C28.83625,14.9589109 30.3571429,15.1618812 31.754381,15.9187574 C33.6300476,16.9354356 34.6743333,18.5236782 34.9258929,20.6329455 C35.1736071,22.7184653 34.5749643,24.5255099 33.0664167,25.9996832 C32.7618333,26.2962228 32.3955238,26.5316683 32.047631,26.7807129 C31.8758095,26.9043218 31.6823333,26.9940347 31.4744881,27.1139901 C32.7187262,28.775302 33.949,30.4185495 35.2201548,32.1157871 L35.2201548,32.1157871 Z" id="Fill-2" fill="#0A0A08"></path>
                <path d="M73.234381,29.3769059 C74.7781429,29.363104 76.0586071,28.9159604 77.0810357,27.9122723 C79.0315833,25.9968416 79.494631,23.6967822 78.5835119,21.1484901 C77.547119,18.2468267 74.3343214,16.7531683 71.4641548,17.8203861 C69.1877738,18.6671782 67.9722738,20.3934406 67.6958214,22.7702228 C67.3096786,26.0944703 69.6817857,29.3334703 73.234381,29.3769059 L73.234381,29.3769059 Z M73.0518333,32.1176139 C72.5985,32.0601733 72.1423333,32.0222178 71.6930476,31.9434653 C69.570881,31.576495 67.7964048,30.5807228 66.4406548,28.8974901 C64.9120714,27.0005297 64.333869,24.8066238 64.5844167,22.3953366 C64.9493095,18.8754257 67.5571905,15.8933861 70.9855238,15.0681089 C71.56575,14.9292772 72.1615595,14.8604703 72.7508929,14.7581733 L73.8929286,14.7581733 C74.1790952,14.7979554 74.4654643,14.8363168 74.7504167,14.8779257 C76.3603571,15.1105297 77.8266071,15.7068564 79.0538452,16.7746832 C81.7483452,19.1220347 82.6521786,22.0971733 81.8711905,25.557005 C81.118131,28.8905891 78.3275,31.4206139 74.954619,31.9499604 C74.5225357,32.0181584 74.0866071,32.062 73.6531071,32.1176139 L73.0518333,32.1176139 L73.0518333,32.1176139 Z" id="Fill-3" fill="#0A0A08"></path>
                <path d="M12.994881,26.6962772 C12.994881,26.6962772 10.5748095,21.1533614 9.42427381,18.518604 C8.26483333,21.1675693 5.84375,26.6962772 5.84375,26.6962772 L12.994881,26.6962772 L12.994881,26.6962772 Z M18.5595476,32.1115248 C17.5496667,32.1115248 16.5889643,32.1253267 15.6292738,32.1115248 C15.543869,32.110104 15.4222381,31.9964406 15.3811548,31.9085545 C14.9857024,31.0670396 14.59875,30.2218713 14.2227262,29.3718317 C14.1494643,29.205802 14.0620357,29.1487673 13.8827262,29.1487673 C10.9089405,29.1548564 7.93434524,29.1548564 4.95934524,29.1487673 C4.77861905,29.1487673 4.69321429,29.2076287 4.6207619,29.3718317 C4.25141667,30.202995 3.86284524,31.0252277 3.49694048,31.8574059 C3.41538095,32.0425149 3.33058333,32.1208614 3.11828571,32.1176139 C2.18935714,32.1042178 1.25941667,32.1176139 0.277059524,32.1176139 C0.378857143,31.8809505 0.464869048,31.665396 0.558166667,31.4575545 C2.96204762,26.1072574 5.37159524,20.7587871 7.76353571,15.4040248 C7.91511905,15.0638465 8.07560714,14.9572871 8.45405952,14.9572871 L10.4766548,14.9572871 C10.693,14.9572871 10.8967976,15.0175693 10.982,15.2079554 C12.994881,19.7033416 15.0164643,24.1946683 17.036631,28.6878218 C17.4976548,29.7130248 17.9580714,30.7380248 18.4174762,31.7638366 C18.4624048,31.8647129 18.5010595,31.9676188 18.5595476,32.1115248 L18.5595476,32.1115248 Z" id="Fill-4" fill="#0A0A08"></path>
                <path d="M41.0513571,32.1176139 L38.0300119,32.1176139 L38.0300119,15.0037673 L41.0513571,15.0037673 L41.0513571,32.1176139" id="Fill-5" fill="#0A0A08"></path>
                <path d="M93.0656905,5.33994554 C90.9688214,3.58283168 89.1730952,0.0919455446 89.1730952,0.0919455446 C84.8518571,5.79236634 82.0454405,14.1206436 81.7445,15.8996782 C84.8846429,11.0121535 90.9791429,6.50438614 93.0656905,5.33994554" id="Fill-6" fill="#A12629"></path>
                <path d="M96.5735595,6.683 C90.1283333,6.97426238 81.4722976,17.1552525 81.4722976,17.1552525 C84.3689762,15.3605891 87.9217738,13.9923663 93.8110595,13.2456386 C98.670631,12.6306386 102,13.2492921 102,13.2492921 C100.331571,11.425604 98.0667262,9.53473267 96.5735595,6.683" id="Fill-7" fill="#E15D32"></path>
                <path d="M1.62066667,39.3360495 C2.80135714,39.3360495 3.55522619,38.533302 3.55522619,37.4963267 L3.55522619,37.4831337 C3.55522619,36.4461584 2.80135714,35.6300149 1.62066667,35.6300149 L0.527,35.6300149 L0.527,39.3360495 L1.62066667,39.3360495 L1.62066667,39.3360495 Z M0,35.1416683 L1.62066667,35.1416683 C3.08833333,35.1416683 4.10205952,36.1518515 4.10205952,37.4695347 L4.10205952,37.4831337 C4.10205952,38.8008168 3.08833333,39.824396 1.62066667,39.824396 L0,39.824396 L0,35.1416683 L0,35.1416683 Z" id="Fill-8" fill="#0A0A08"></path>
                <path d="M7.60405952,38.553396 L7.60405952,38.232297 C7.35067857,38.1588218 7.01715476,38.0851436 6.5970119,38.0851436 C5.95647619,38.0851436 5.58955952,38.3660545 5.58955952,38.7809257 L5.58955952,38.7943218 C5.58955952,39.2290842 5.99007143,39.483203 6.45696429,39.483203 C7.09061905,39.483203 7.60405952,39.1018218 7.60405952,38.553396 L7.60405952,38.553396 Z M5.06964286,38.8211139 L5.06964286,38.8075149 C5.06964286,38.0650495 5.66970238,37.6769703 6.54358333,37.6769703 C6.98396429,37.6769703 7.29057143,37.7372525 7.59758333,37.8241238 L7.59758333,37.7171584 C7.59758333,37.1017525 7.2239881,36.7806535 6.57717857,36.7806535 C6.17019048,36.7806535 5.85002381,36.8809208 5.52965476,37.0282772 L5.37645238,36.6067079 C5.75652381,36.4327624 6.1232381,36.312198 6.63020238,36.312198 C7.11713095,36.312198 7.49760714,36.4461584 7.74410714,36.6935792 C7.98433333,36.934505 8.10434524,37.269 8.10434524,37.7104604 L8.10434524,39.824396 L7.59758333,39.824396 L7.59758333,39.3092574 C7.35735714,39.6171634 6.96392857,39.8978713 6.3569881,39.8978713 C5.70957143,39.8978713 5.06964286,39.5302921 5.06964286,38.8211139 L5.06964286,38.8211139 Z" id="Fill-9" fill="#0A0A08"></path>
                <path d="M9.53861905,38.9079851 L9.53861905,36.8206386 L9.05836905,36.8206386 L9.05836905,36.3657822 L9.53861905,36.3657822 L9.53861905,35.3221089 L10.0522619,35.3221089 L10.0522619,36.3657822 L11.146131,36.3657822 L11.146131,36.8206386 L10.0522619,36.8206386 L10.0522619,38.841005 C10.0522619,39.2623713 10.2858095,39.4164257 10.6326905,39.4164257 C10.806131,39.4164257 10.9528571,39.3829356 11.1327738,39.2958614 L11.1327738,39.7373218 C10.9528571,39.8310941 10.759381,39.8846782 10.5124762,39.8846782 C9.95896429,39.8846782 9.53861905,39.6102624 9.53861905,38.9079851" id="Fill-10" fill="#0A0A08"></path>
                <path d="M14.528119,38.553396 L14.528119,38.232297 C14.2745357,38.1588218 13.9410119,38.0851436 13.520869,38.0851436 C12.8805357,38.0851436 12.513619,38.3660545 12.513619,38.7809257 L12.513619,38.7943218 C12.513619,39.2290842 12.9137262,39.483203 13.380619,39.483203 C14.0144762,39.483203 14.528119,39.1018218 14.528119,38.553396 L14.528119,38.553396 Z M11.9932976,38.8211139 L11.9932976,38.8075149 C11.9932976,38.0650495 12.5937619,37.6769703 13.4674405,37.6769703 C13.907619,37.6769703 14.2144286,37.7372525 14.5212381,37.8241238 L14.5212381,37.7171584 C14.5212381,37.1017525 14.1478452,36.7806535 13.5008333,36.7806535 C13.0938452,36.7806535 12.7736786,36.8809208 12.4537143,37.0282772 L12.3001071,36.6067079 C12.680381,36.4327624 13.0470952,36.312198 13.5542619,36.312198 C14.0411905,36.312198 14.4212619,36.4461584 14.6681667,36.6935792 C14.9081905,36.934505 15.0282024,37.269 15.0282024,37.7104604 L15.0282024,39.824396 L14.5212381,39.824396 L14.5212381,39.3092574 C14.2812143,39.6171634 13.8877857,39.8978713 13.2806429,39.8978713 C12.633631,39.8978713 11.9932976,39.5302921 11.9932976,38.8211139 L11.9932976,38.8211139 Z" id="Fill-11" fill="#0A0A08"></path>
                <path d="M18.6502143,35.1416683 L19.1772143,35.1416683 L19.1772143,39.824396 L18.6502143,39.824396 L18.6502143,35.1416683 Z" id="Fill-12" fill="#0A0A08"></path>
                <path d="M20.6578333,36.3657822 L21.1714762,36.3657822 L21.1714762,36.967995 C21.3981429,36.5933119 21.7585833,36.2923069 22.3521667,36.2923069 C23.1859762,36.2923069 23.6731071,36.8541287 23.6731071,37.6769703 L23.6731071,39.824396 L23.1592619,39.824396 L23.1592619,37.8042327 C23.1592619,37.1618317 22.812381,36.7605594 22.2054405,36.7605594 C21.6116548,36.7605594 21.1714762,37.1955248 21.1714762,37.8444208 L21.1714762,39.824396 L20.6578333,39.824396 L20.6578333,36.3657822" id="Fill-13" fill="#0A0A08"></path>
                <path d="M25.1470476,38.9079851 L25.1470476,36.8206386 L24.6667976,36.8206386 L24.6667976,36.3657822 L25.1470476,36.3657822 L25.1470476,35.3221089 L25.6604881,35.3221089 L25.6604881,36.3657822 L26.7543571,36.3657822 L26.7543571,36.8206386 L25.6604881,36.8206386 L25.6604881,38.841005 C25.6604881,39.2623713 25.8942381,39.4164257 26.2409167,39.4164257 C26.4143571,39.4164257 26.5610833,39.3829356 26.7412024,39.2958614 L26.7412024,39.7373218 C26.5610833,39.8310941 26.3678095,39.8846782 26.1209048,39.8846782 C25.5673929,39.8846782 25.1470476,39.6102624 25.1470476,38.9079851" id="Fill-14" fill="#0A0A08"></path>
                <path d="M30.28975,37.8913069 C30.2298452,37.262302 29.8696071,36.7270693 29.1892024,36.7270693 C28.595619,36.7270693 28.1420833,37.2223168 28.068619,37.8913069 L30.28975,37.8913069 L30.28975,37.8913069 Z M29.2827024,39.4566139 C29.7562738,39.4566139 30.0895952,39.2623713 30.3698929,38.9680644 L30.6900595,39.2558762 C30.3431786,39.6437525 29.9228333,39.9047723 29.2693452,39.9047723 C28.322,39.9047723 27.5482976,39.1755 27.5482976,38.0985396 C27.5482976,37.0950545 28.2489405,36.2923069 29.2025595,36.2923069 C30.2231667,36.2923069 30.8100714,37.1084505 30.8100714,38.1251287 C30.8100714,38.1720149 30.8100714,38.225599 30.8033929,38.3059752 L28.068619,38.3059752 C28.1420833,39.0350446 28.6755595,39.4566139 29.2827024,39.4566139 L29.2827024,39.4566139 Z" id="Fill-15" fill="#0A0A08"></path>
                <path d="M31.957369,34.9407277 L32.4639351,34.9407277 L32.4639351,39.824396 L31.957369,39.824396 L31.957369,34.9407277 Z" id="Fill-16" fill="#0A0A08"></path>
                <path d="M33.9115595,34.9407277 L34.4189246,34.9407277 L34.4189246,39.824396 L33.9115595,39.824396 L33.9115595,34.9407277 Z" id="Fill-17" fill="#0A0A08"></path>
                <path d="M35.8659524,36.3657822 L36.3797976,36.3657822 L36.3797976,39.824396 L35.8659524,39.824396 L35.8659524,36.3657822 Z M35.8327619,35.041401 L36.419869,35.041401 L36.419869,35.6099208 L35.8327619,35.6099208 L35.8327619,35.041401 Z" id="Fill-18" fill="#0A0A08"></path>
                <path d="M40.5617976,37.9312921 L40.5617976,37.917896 C40.5617976,37.2087178 39.9481786,36.7471634 39.2944881,36.7471634 C38.6407976,36.7471634 38.1006429,37.2020198 38.1006429,37.910995 L38.1006429,37.9245941 C38.1006429,38.6201733 38.6541548,39.1018218 39.2944881,39.1018218 C39.9481786,39.1018218 40.5617976,38.6270743 40.5617976,37.9312921 L40.5617976,37.9312921 Z M37.7337262,40.4266089 L37.9670714,40.0251337 C38.3607024,40.3127426 38.8006786,40.4665941 39.2944881,40.4665941 C40.0548333,40.4665941 40.5482381,40.0452277 40.5482381,39.2357822 L40.5482381,38.8278119 C40.2483095,39.2290842 39.8281667,39.5570842 39.1943095,39.5570842 C38.3671786,39.5570842 37.5734405,38.9347772 37.5734405,37.9377871 L37.5734405,37.9245941 C37.5734405,36.9144109 38.3738571,36.2923069 39.1943095,36.2923069 C39.8413214,36.2923069 40.2614643,36.6134059 40.5417619,36.9878861 L40.5417619,36.3657822 L41.0552024,36.3657822 L41.0552024,39.2221832 C41.0552024,39.7574158 40.895119,40.1657921 40.6152262,40.4465 C40.3082143,40.7544059 39.8482024,40.9080545 39.301369,40.9080545 C38.727619,40.9080545 38.1939405,40.747505 37.7337262,40.4266089 L37.7337262,40.4266089 Z" id="Fill-19" fill="#0A0A08"></path>
                <path d="M44.931,37.8913069 C44.8706905,37.262302 44.5106548,36.7270693 43.83025,36.7270693 C43.2366667,36.7270693 42.7827262,37.2223168 42.7094643,37.8913069 L44.931,37.8913069 L44.931,37.8913069 Z M43.9233452,39.4566139 C44.397119,39.4566139 44.7306429,39.2623713 45.0107381,38.9680644 L45.3309048,39.2558762 C44.9840238,39.6437525 44.5640833,39.9047723 43.9103929,39.9047723 C42.9630476,39.9047723 42.1893452,39.1755 42.1893452,38.0985396 C42.1893452,37.0950545 42.8897857,36.2923069 43.8436071,36.2923069 C44.8642143,36.2923069 45.451119,37.1084505 45.451119,38.1251287 C45.451119,38.1720149 45.451119,38.225599 45.4444405,38.3059752 L42.7094643,38.3059752 C42.7827262,39.0350446 43.3166071,39.4566139 43.9233452,39.4566139 L43.9233452,39.4566139 Z" id="Fill-20" fill="#0A0A08"></path>
                <path d="M46.551869,36.3657822 L47.0655119,36.3657822 L47.0655119,36.967995 C47.292381,36.5933119 47.6522143,36.2923069 48.246,36.2923069 C49.0800119,36.2923069 49.5669405,36.8541287 49.5669405,37.6769703 L49.5669405,39.824396 L49.0530952,39.824396 L49.0530952,37.8042327 C49.0530952,37.1618317 48.7064167,36.7605594 48.0992738,36.7605594 C47.5054881,36.7605594 47.0655119,37.1955248 47.0655119,37.8444208 L47.0655119,39.824396 L46.551869,39.824396 L46.551869,36.3657822" id="Fill-21" fill="#0A0A08"></path>
                <path d="M50.6474524,38.1119356 L50.6474524,38.0985396 C50.6474524,37.1218465 51.4077976,36.2923069 52.4150476,36.2923069 C53.0685357,36.2923069 53.4755238,36.5665198 53.7954881,36.9077129 L53.4554881,37.269 C53.1820714,36.9813911 52.8752619,36.7471634 52.408369,36.7471634 C51.7077262,36.7471634 51.17425,37.3424752 51.17425,38.0851436 L51.17425,38.0985396 C51.17425,38.847703 51.7210833,39.4432178 52.4415595,39.4432178 C52.8819405,39.4432178 53.2219405,39.2221832 53.4955595,38.9280792 L53.8224048,39.2357822 C53.4755238,39.6236584 53.0618571,39.9047723 52.4150476,39.9047723 C51.4077976,39.9047723 50.6474524,39.0819307 50.6474524,38.1119356" id="Fill-22" fill="#0A0A08"></path>
                <path d="M57.2976905,37.8913069 C57.2375833,37.262302 56.8773452,36.7270693 56.1969405,36.7270693 C55.6035595,36.7270693 55.1498214,37.2223168 55.0763571,37.8913069 L57.2976905,37.8913069 L57.2976905,37.8913069 Z M56.2904405,39.4566139 C56.7638095,39.4566139 57.0977381,39.2623713 57.3778333,38.9680644 L57.6977976,39.2558762 C57.351119,39.6437525 56.9307738,39.9047723 56.276881,39.9047723 C55.3301429,39.9047723 54.5560357,39.1755 54.5560357,38.0985396 C54.5560357,37.0950545 55.2566786,36.2923069 56.2102976,36.2923069 C57.2309048,36.2923069 57.8178095,37.1084505 57.8178095,38.1251287 C57.8178095,38.1720149 57.8178095,38.225599 57.8109286,38.3059752 L55.0763571,38.3059752 C55.1498214,39.0350446 55.6837024,39.4566139 56.2904405,39.4566139 L56.2904405,39.4566139 Z" id="Fill-23" fill="#0A0A08"></path>
                <path d="M61.313131,36.8206386 L60.8395595,36.8206386 L60.8395595,36.3724802 L61.313131,36.3724802 L61.313131,36.0714752 C61.313131,35.676698 61.4197857,35.3756931 61.6132619,35.1818564 C61.7869048,35.0081139 62.0402857,34.9141386 62.3537738,34.9141386 C62.5937976,34.9141386 62.753881,34.9407277 62.9204405,35.0010099 L62.9204405,35.4491683 C62.7338452,35.3959901 62.5937976,35.3625 62.4205595,35.3625 C62.0200476,35.3625 61.8200952,35.6032228 61.8200952,36.0982673 L61.8200952,36.3791782 L62.9139643,36.3791782 L62.9139643,36.8206386 L61.8265714,36.8206386 L61.8265714,39.824396 L61.313131,39.824396 L61.313131,36.8206386" id="Fill-24" fill="#0A0A08"></path>
                <path d="M66.5558095,38.1119356 L66.5558095,38.0985396 C66.5558095,37.3560743 66.0022976,36.7471634 65.2751429,36.7471634 C64.5281548,36.7471634 64.0145119,37.3560743 64.0145119,38.0851436 L64.0145119,38.0985396 C64.0145119,38.841005 64.5613452,39.4432178 65.2887024,39.4432178 C66.0356905,39.4432178 66.5558095,38.841005 66.5558095,38.1119356 L66.5558095,38.1119356 Z M63.4877143,38.1119356 L63.4877143,38.0985396 C63.4877143,37.1218465 64.2480595,36.2923069 65.2887024,36.2923069 C66.3224643,36.2923069 67.0830119,37.1084505 67.0830119,38.0851436 L67.0830119,38.0985396 C67.0830119,39.0752327 66.3157857,39.9047723 65.2751429,39.9047723 C64.241381,39.9047723 63.4877143,39.0886287 63.4877143,38.1119356 L63.4877143,38.1119356 Z" id="Fill-25" fill="#0A0A08"></path>
                <path d="M68.2102738,36.3657822 L68.7237143,36.3657822 L68.7237143,37.269 C68.9772976,36.6935792 69.4775833,36.2789109 70.1312738,36.305703 L70.1312738,36.8608267 L70.0912024,36.8608267 C69.3375357,36.8608267 68.7237143,37.4027574 68.7237143,38.4462277 L68.7237143,39.824396 L68.2102738,39.824396 L68.2102738,36.3657822" id="Fill-26" fill="#0A0A08"></path>
                <path d="M76.4281548,38.1119356 L75.3674762,35.7237871 L74.300119,38.1119356 L76.4281548,38.1119356 L76.4281548,38.1119356 Z M75.1274524,35.1083812 L75.6208571,35.1083812 L77.7486905,39.824396 L77.1818214,39.824396 L76.6347857,38.5866832 L74.0934881,38.5866832 L73.5395714,39.824396 L72.999619,39.824396 L75.1274524,35.1083812 L75.1274524,35.1083812 Z" id="Fill-27" fill="#0A0A08"></path>
                <path d="M78.8296071,34.9407277 L79.335774,34.9407277 L79.335774,39.824396 L78.8296071,39.824396 L78.8296071,34.9407277 Z" id="Fill-28" fill="#0A0A08"></path>
                <path d="M80.7837976,34.9407277 L81.2903637,34.9407277 L81.2903637,39.824396 L80.7837976,39.824396 L80.7837976,34.9407277 Z" id="Fill-29" fill="#0A0A08"></path>
            </g>
        </g>
    </g>
</svg>