<?xml version="1.0" encoding="UTF-8" standalone="no"?>
<svg width="88px" height="28px" viewBox="0 0 88 28" version="1.1" xmlns="http://www.w3.org/2000/svg" xmlns:xlink="http://www.w3.org/1999/xlink">
    <!-- Generator: Sketch 3.6.1 (26313) - http://www.bohemiancoding.com/sketch -->
    <title>arimo_logo_CMYK_lightBG</title>
    <desc>Created with Sketch.</desc>
    <defs></defs>
    <g id="Page-1" stroke="none" stroke-width="1" fill="none" fill-rule="evenodd">
        <g id="Desktop-HD-Copy-3" transform="translate(-32.000000, -2.000000)">
            <g id="Group-5">
                <g id="arimo_logo_CMYK_lightBG" transform="translate(32.000000, 2.000000)">
                    <path d="M45.7093651,27.8296062 L46.4615556,27.8296062 L50.6382381,18.8830625 L50.6382381,27.8004014 L53.2792857,27.8004014 L53.2792857,12.9581676 L50.6825873,12.9581676 L45.7093651,24.1506717 L45.7245556,24.1506717 L40.7516825,12.9581676 L38.1549841,12.9581676 L38.1549841,27.8004014 L40.7962063,27.8004014 L40.7962063,18.8830625 L44.9728889,27.8296062 L45.7245556,27.8296062 L45.7093651,27.8296062" id="Fill-1" fill="#FFFFFF"></path>
                    <path d="M20.1296508,22.0120305 C20.5144762,22.0120305 23.375873,22.0373648 24.4465397,21.9518614 C26.4537778,21.7915864 27.8100952,19.8322209 27.3384921,17.8608919 C26.9912063,16.4083892 25.8540159,15.3816443 24.3590635,15.3035301 C22.977254,15.2322772 21.5893333,15.2686954 20.2040317,15.259019 C20.1801111,15.259019 20.1561905,15.2783717 20.1296508,15.2891036 L20.1296508,22.0120305 L20.1296508,22.0120305 Z M30.3860159,27.8376992 C29.3106349,27.8376992 28.3042222,27.8436809 27.2979841,27.8304859 C27.2023016,27.8289025 27.0806032,27.7326672 27.0172222,27.6455804 C26.2515873,26.5920937 25.4911905,25.5342087 24.738127,24.4713976 C24.629873,24.3176321 24.5210952,24.2578149 24.3283333,24.2609817 C23.0395873,24.2859642 20.1212698,24.2609817 20.1212698,24.2609817 L20.1212698,27.8234486 L17.49,27.8234486 L17.49,12.9585194 C17.5767778,12.9585194 21.6109841,12.9528896 23.5349365,12.9606306 C24.8783333,12.9662605 26.1904762,13.1421935 27.3959365,13.7982475 C29.0141587,14.6794958 29.9151111,16.0561714 30.1321429,17.8844669 C30.3458571,19.6921782 29.829381,21.2585095 28.5278889,22.5363107 C28.2651111,22.7933488 27.9490794,22.9974311 27.6489365,23.2133008 C27.5006984,23.320444 27.3337778,23.3982064 27.1544603,23.5021828 C28.2279206,24.9421942 29.2893333,26.3665476 30.3860159,27.8376992 L30.3860159,27.8376992 Z" id="Fill-2" fill="#FFFFFF"></path>
                    <path d="M63.1826032,25.4636596 C64.5144762,25.4516961 65.6191905,25.0641158 66.5012857,24.1941272 C68.1841111,22.5338477 68.5836032,20.5401752 67.7975397,18.3313366 C66.9033968,15.8161988 64.1315714,14.521508 61.6553492,15.4465636 C59.6914127,16.180556 58.642746,17.676866 58.4042381,19.7370411 C58.0710952,22.6184714 60.117619,25.4260099 63.1826032,25.4636596 L63.1826032,25.4636596 Z M63.0251111,27.8392826 C62.634,27.7894935 62.2404444,27.7565941 61.8528254,27.6883321 C60.0219365,27.3702452 58.4910159,26.5071181 57.3213492,25.0481059 C56.0025714,23.4038363 55.5037302,21.5021767 55.7198889,19.4120929 C56.0346984,16.3610632 58.2846349,13.7762559 61.2424127,13.0609124 C61.743,12.9405743 62.2570317,12.880933 62.7654762,12.7922628 L63.7507619,12.7922628 C63.9976508,12.8267456 64.2447143,12.859997 64.4905556,12.8960632 C65.8795238,13.0976824 67.1445238,13.6145735 68.2033175,14.5401569 C70.5279841,16.5748218 71.3077619,19.1536474 70.6339683,22.1526009 C69.9842698,25.0421241 67.5766667,27.2351287 64.6667302,27.6939619 C64.2939524,27.7530754 63.9178571,27.7910769 63.5438571,27.8392826 L63.0251111,27.8392826 L63.0251111,27.8392826 Z" id="Fill-3" fill="#FFFFFF"></path>
                    <path d="M11.2112698,23.1401127 C11.2112698,23.1401127 9.12336508,18.335559 8.13074603,16.051773 C7.13044444,18.3478743 5.04166667,23.1401127 5.04166667,23.1401127 L11.2112698,23.1401127 L11.2112698,23.1401127 Z M16.0121587,27.8340046 C15.1408889,27.8340046 14.3120476,27.845968 13.4840794,27.8340046 C13.4103968,27.832773 13.3054603,27.7342506 13.2700159,27.6580716 C12.9288413,26.9286535 12.595,26.1960685 12.2705873,25.4592612 C12.207381,25.3153481 12.1319524,25.2659109 11.977254,25.2659109 C9.41163492,25.2711889 6.84531746,25.2711889 4.27865079,25.2659109 C4.12273016,25.2659109 4.04904762,25.3169315 3.98653968,25.4592612 C3.66788889,26.1797068 3.33265079,26.8924113 3.01696825,27.6137365 C2.94660317,27.7741874 2.87344444,27.8420975 2.69028571,27.8392826 C1.88885714,27.827671 1.08655556,27.8392826 0.239031746,27.8392826 C0.326857143,27.6341447 0.401063492,27.4473039 0.481555556,27.2671485 C2.55549206,22.6295552 4.63431746,17.9935453 6.69795238,13.3520815 C6.82873016,13.0572178 6.96719048,12.964853 7.29369841,12.964853 L9.03868254,12.964853 C9.22533333,12.964853 9.40115873,13.0171051 9.47466667,13.1821302 C11.2112698,17.0786938 12.955381,20.9717388 14.6982698,24.8663671 C15.0960159,25.7550046 15.4932381,26.6434661 15.8895873,27.5326314 C15.9283492,27.6200701 15.9616984,27.7092681 16.0121587,27.8340046 L16.0121587,27.8340046 Z" id="Fill-4" fill="#FFFFFF"></path>
                    <path d="M35.4168571,27.8392826 L32.8102063,27.8392826 L32.8102063,13.0051417 L35.4168571,13.0051417 L35.4168571,27.8392826" id="Fill-5" fill="#FFFFFF"></path>
                    <path d="M80.2919683,4.62862072 C78.4829048,3.10556893 76.9336508,0.079697639 76.9336508,0.079697639 C73.2055238,5.02077532 70.7843016,12.2396573 70.5246667,13.7817098 C73.2338095,9.54524372 78.4918095,5.63794821 80.2919683,4.62862072" id="Fill-6" fill="#FFAC66"></path>
                    <path d="M83.3183651,5.79276923 C77.7577778,6.04523305 70.2898254,14.8700312 70.2898254,14.8700312 C72.7889206,13.3144318 75.8540794,12.1284676 80.9350317,11.4812102 C85.1276032,10.9481333 88,11.484377 88,11.484377 C86.5605714,9.90361919 84.6065873,8.26462757 83.3183651,5.79276923" id="Fill-7" fill="#FFDDC1"></path>
                </g>
            </g>
        </g>
    </g>
</svg>