<?xml version="1.0" encoding="UTF-8" standalone="no"?>
<svg width="76px" height="32px" viewBox="0 0 76 32" version="1.1" xmlns="http://www.w3.org/2000/svg" xmlns:xlink="http://www.w3.org/1999/xlink" xmlns:sketch="http://www.bohemiancoding.com/sketch/ns">
    <!-- Generator: Sketch 3.5.2 (25235) - http://www.bohemiancoding.com/sketch -->
    <title>Dataset Directory Logo</title>
    <desc>Created with Sketch.</desc>
    <defs></defs>
    <g id="Page-1" stroke="none" stroke-width="1" fill="none" fill-rule="evenodd" sketch:type="MSPage">
        <g id="Dataset-Directory-Logo" sketch:type="MSArtboardGroup">
            <g id="Page-1" sketch:type="MSLayerGroup">
                <path d="M39.3391472,23.7438521 L39.9863571,23.7438521 L43.5809487,16.1325618 L43.5809487,23.719006 L45.8539219,23.719006 L45.8539219,11.0920951 L43.6191171,11.0920951 L39.3391472,20.6141408 L39.3522207,20.6141408 L35.0724011,11.0920951 L32.8374459,11.0920951 L32.8374459,23.719006 L35.1104192,23.719006 L35.1104192,16.1325618 L38.7053114,23.7438521 L39.3522207,23.7438521 L39.3391472,23.7438521 Z" id="Fill-1" fill="#FFFFFF" sketch:type="MSShapeGroup"></path>
                <g id="Group-34" sketch:type="MSShapeGroup">
                    <path d="M17.3241105,18.7944928 C17.6554542,18.7944928 20.1182176,18.816046 21.0396689,18.7433038 C22.7670143,18.6070992 23.9341559,16.9400153 23.5284288,15.2629032 C23.2296935,14.0273332 22.2508393,13.1535286 20.9642337,13.0873721 C19.7751528,13.0267536 18.580512,13.0577364 17.3882754,13.0496539 C17.3676885,13.0496539 17.3471017,13.0659685 17.3241105,13.0750987 L17.3241105,18.7944928 Z M26.1510787,23.7506922 C25.2257204,23.7506922 24.359418,23.7557812 23.4937166,23.7445556 C23.4112188,23.7432085 23.3064811,23.6613361 23.2519333,23.5872468 C22.5930025,22.6911405 21.9385798,21.7911427 21.2904683,20.8868043 C21.1971511,20.7559881 21.1035333,20.7052481 20.9377863,20.7079423 C19.8286487,20.7291962 17.3168975,20.7079423 17.3168975,20.7079423 L17.3168975,23.7387182 L15.0524896,23.7387182 L15.0524896,11.0923495 C15.1271735,11.0923495 18.5991454,11.0875599 20.2549627,11.0941456 C21.4111346,11.0987856 22.5404083,11.2486106 23.5777172,11.8066002 C24.9705632,12.556324 25.7459527,13.7275335 25.9325872,15.2831093 C26.116667,16.8207241 25.6723208,18.153583 24.5520632,19.2405253 C24.3260582,19.4592009 24.0537703,19.632974 23.7954574,19.8166257 C23.6681793,19.9076283 23.5243716,19.9739344 23.370045,20.0623926 C24.2939006,21.2874852 25.2072373,22.4992567 26.1510787,23.7506922 L26.1510787,23.7506922 Z" id="Fill-2" fill="#FFFFFF"></path>
                    <path d="M54.377226,21.7311379 C55.5233299,21.72096 56.4740837,21.3912252 57.2333944,20.650931 C58.6813892,19.2385945 59.0253556,17.5424735 58.3489936,15.6632997 C57.579164,13.523541 55.1937893,12.4220802 53.0626703,13.2089235 C51.3724413,13.833369 50.469924,15.1063577 50.2648064,16.8590559 C49.9779423,19.3104386 51.7389481,21.6989577 54.377226,21.7311379 L54.377226,21.7311379 Z M54.2415329,23.752204 C53.9047794,23.7098458 53.5663729,23.6817069 53.2324746,23.6237825 C51.6567508,23.3531695 50.33934,22.6187126 49.3325358,21.3776047 C48.1977021,19.9785893 47.7683827,18.3607486 47.9544161,16.5827553 C48.2255019,13.9870855 50.1615714,11.7879058 52.7074337,11.1794755 C53.1379552,11.0769479 53.5806485,11.026208 54.0177819,10.9507716 L54.8662023,10.9507716 C55.0786831,10.980108 55.2910136,11.0083966 55.502743,11.0390801 C56.6981352,11.2107577 57.7866859,11.6503542 58.6980691,12.4379458 C60.6986042,14.1689411 61.3698571,16.3628822 60.7898176,18.914248 C60.2309661,21.3725158 58.1587527,23.2380692 55.6542144,23.6285721 C55.3333895,23.6788631 55.01001,23.7111929 54.6879829,23.752204 L54.2415329,23.752204 Z" id="Fill-4" fill="#FFFFFF"></path>
                    <path d="M9.64892624,19.7545104 C9.64892624,19.7545104 7.85200609,15.6667272 6.99757492,13.7239413 C6.13683243,15.6773542 4.3388604,19.7545104 4.3388604,19.7545104 L9.64892624,19.7545104 Z M13.7805803,23.7476987 C13.0307366,23.7476987 12.3174083,23.7578767 11.6049816,23.7476987 C11.5414177,23.746651 11.4509555,23.6625335 11.4206011,23.5978737 C11.1268247,22.9773198 10.8396601,22.3542213 10.5604597,21.727381 C10.505912,21.6047969 10.4411459,21.5628878 10.3081576,21.5628878 C8.09995041,21.5672284 5.89114215,21.5672284 3.68248415,21.5628878 C3.54814341,21.5628878 3.48472977,21.606144 3.43093336,21.727381 C3.15669191,22.3401519 2.86817488,22.9466363 2.596488,23.5603052 C2.53607975,23.6968091 2.47296665,23.7545838 2.31533417,23.752189 C1.62559813,23.7423104 0.935110754,23.752189 0.205703629,23.752189 C0.281289081,23.5776676 0.345153528,23.4185627 0.41442767,23.2654448 C2.19947654,19.3200029 3.98843242,15.375908 5.76446514,11.4270236 C5.87701683,11.1761677 5.99603011,11.0977378 6.27718395,11.0977378 L7.77897522,11.0977378 C7.93961308,11.0977378 8.09093426,11.1421914 8.15419763,11.2824372 C9.64892624,14.5975963 11.1498159,17.9094625 12.6498039,21.2229751 C12.9921174,21.9786859 13.3338297,22.7348457 13.6750913,23.4913049 C13.7084511,23.5658432 13.7371525,23.6415789 13.7805803,23.7476987 L13.7805803,23.7476987 Z" id="Fill-6" fill="#FFFFFF"></path>
                    <path d="M30.4810732,23.7521291 L28.2374025,23.7521291 L28.2374025,11.1319536 L30.4810732,11.1319536 L30.4810732,23.7521291 Z" id="Fill-8" fill="#FFFFFF"></path>
                    <path d="M69.1017079,4.0055665 C67.5450683,2.71012645 66.2118792,0.135710629 66.2118792,0.135710629 C63.0031791,4.33919283 60.9193948,10.480821 60.6959444,11.7925757 C63.0273724,8.18854319 67.5524315,4.86425392 69.1017079,4.0055665" id="Fill-10" fill="#54D3BA"></path>
                    <path d="M71.7064757,4.99599815 C66.9206994,5.21093194 60.4938322,12.7184972 60.4938322,12.7184972 C62.644336,11.3950679 65.2823134,10.3862561 69.6552999,9.83545087 C73.2635661,9.3819346 75.7356461,9.8382947 75.7356461,9.8382947 C74.4966758,8.49316244 72.8151625,7.09893666 71.7064757,4.99599815" id="Fill-11" fill="#96E5D5"></path>
                </g>
            </g>
            <rect id="Rectangle-164" sketch:type="MSShapeGroup" x="0" y="0" width="76" height="32"></rect>
        </g>
    </g>
</svg>