<?xml version="1.0" encoding="UTF-8" standalone="no"?>
<svg width="166px" height="53px" viewBox="0 0 166 53" version="1.1" xmlns="http://www.w3.org/2000/svg" xmlns:xlink="http://www.w3.org/1999/xlink">
    <!-- Generator: Sketch 3.6.1 (26313) - http://www.bohemiancoding.com/sketch -->
    <title>arimo_logo_CMYK_lightBG</title>
    <desc>Created with Sketch.</desc>
    <defs></defs>
    <g id="Page-1" stroke="none" stroke-width="1" fill="none" fill-rule="evenodd">
        <g id="Desktop-HD-Copy-13" transform="translate(-122.000000, -27.000000)">
            <g id="arimo_logo_CMYK_lightBG" transform="translate(122.000000, 27.000000)">
                <path d="M86.2244841,52.677469 L87.6433889,52.677469 L95.522131,35.7429396 L95.522131,52.6221883 L100.504107,52.6221883 L100.504107,24.52796 L95.6057897,24.52796 L86.2244841,45.7137715 L86.2531389,45.7137715 L76.8724921,24.52796 L71.9741746,24.52796 L71.9741746,52.6221883 L76.9564802,52.6221883 L76.9564802,35.7429396 L84.8352222,52.677469 L86.2531389,52.677469 L86.2244841,52.677469" id="Fill-1" fill="#FFFFFF"></path>
                <path d="M37.9718413,41.6656291 C38.6977619,41.6656291 44.0953968,41.7135834 46.1150635,41.5517376 C49.9014444,41.2483601 52.4599524,37.5395609 51.5703373,33.8081167 C50.9152302,31.0587367 48.7700754,29.1152553 45.9500516,28.9673962 C43.3434563,28.8325248 40.7253333,28.9014591 38.1121508,28.8831432 C38.0670278,28.8831432 38.0219048,28.9197749 37.9718413,28.9400889 L37.9718413,41.6656291 L37.9718413,41.6656291 Z M57.3190754,52.6927877 C55.2905159,52.6927877 53.3920556,52.7041102 51.4939246,52.679134 C51.3134325,52.6761369 51.0838651,52.4939772 50.9643056,52.3291342 C49.5200397,50.3350345 48.0856548,48.3326093 46.6651032,46.3208597 C46.4608968,46.0298037 46.2557024,45.9165783 45.8920833,45.9225725 C43.4610397,45.9698608 37.9560317,45.9225725 37.9560317,45.9225725 L37.9560317,52.6658134 L32.9925,52.6658134 L32.9925,24.528626 C33.1561944,24.528626 40.7661746,24.5179695 44.3954484,24.5326222 C46.9295833,24.5432788 49.4047619,24.8762947 51.6786984,26.1181114 C54.731254,27.7861885 56.4307778,30.3920387 56.8401786,33.8527409 C57.2433214,37.2744802 56.2690595,40.2393216 53.8139722,42.6580168 C53.3182778,43.1445531 52.722127,43.5308517 52.1559484,43.9394623 C51.8763175,44.142269 51.5614444,44.2894621 51.2231865,44.4862746 C53.248123,47.2120105 55.2503333,49.908108 57.3190754,52.6927877 L57.3190754,52.6927877 Z" id="Fill-2" fill="#FFFFFF"></path>
                <path d="M119.185365,48.1990699 C121.697762,48.1764248 123.781655,47.4427906 125.445607,45.7960265 C128.620028,42.6533545 129.373615,38.8796173 127.890813,34.6986015 C126.204135,29.9378048 120.975464,27.4871401 116.304409,29.2381382 C112.59971,30.627481 110.621544,33.459782 110.171631,37.3593993 C109.543202,42.8135352 113.40369,48.1278045 119.185365,48.1990699 L119.185365,48.1990699 Z M118.888278,52.6957848 C118.1505,52.6015413 117.408111,52.5392673 116.676921,52.4100571 C113.223198,51.8079642 110.335325,50.1741877 108.128909,47.4124861 C105.641214,44.3001186 104.700218,40.7005487 105.107972,36.7443187 C105.701817,30.9691554 109.946016,26.0764844 115.52546,24.7224414 C116.46975,24.4946584 117.439401,24.381766 118.398512,24.2139259 L120.257119,24.2139259 C120.722841,24.2791971 121.188893,24.3421371 121.652639,24.4104054 C124.272738,24.7920417 126.658988,25.7704427 128.656258,27.5224398 C133.041425,31.3737698 134.512369,36.2551182 133.241349,41.9317089 C132.015782,47.4011636 127.474167,51.5522079 121.984968,52.4207136 C121.281774,52.532607 120.572321,52.6045385 119.866821,52.6957848 L118.888278,52.6957848 L118.888278,52.6957848 Z" id="Fill-3" fill="#FFFFFF"></path>
                <path d="M21.1485317,43.8009276 C21.1485317,43.8009276 17.2099841,34.7065939 15.3375437,30.3837133 C13.4506111,34.729905 9.51041667,43.8009276 9.51041667,43.8009276 L21.1485317,43.8009276 L21.1485317,43.8009276 Z M30.204754,52.6857944 C28.5612222,52.6857944 26.9977262,52.7084395 25.435877,52.6857944 C25.2968849,52.6834633 25.0989365,52.4969743 25.0320754,52.3527784 C24.388496,50.9720941 23.75875,49.5854155 23.1467897,48.1907445 C23.0275595,47.9183374 22.8852738,47.8247599 22.5934563,47.8247599 C17.7537659,47.8347504 12.9127579,47.8347504 8.07109127,47.8247599 C7.77696825,47.8247599 7.63797619,47.9213345 7.52006349,48.1907445 C6.91897222,49.554445 6.28659127,50.9034928 5.69109921,52.2688583 C5.55836508,52.5725689 5.42036111,52.7011131 5.07485714,52.6957848 C3.56307143,52.6738058 2.04963889,52.6957848 0.450900794,52.6957848 C0.616571429,52.3074882 0.756551587,51.9538252 0.908388889,51.6128168 C4.8205873,42.8345152 8.74200794,34.0592108 12.6347738,25.2735828 C12.8814683,24.715448 13.1426548,24.5406146 13.7585675,24.5406146 L17.0502421,24.5406146 C17.4023333,24.5406146 17.734004,24.6395204 17.8726667,24.9518894 C21.1485317,32.3275276 24.4385595,39.6965055 27.7262817,47.0684806 C28.4765754,48.7505444 29.225881,50.4322751 29.9735397,52.115338 C30.0466587,52.2808469 30.1095675,52.449686 30.204754,52.6857944 L30.204754,52.6857944 Z" id="Fill-4" fill="#FFFFFF"></path>
                <path d="M66.8090714,52.6957848 L61.8919802,52.6957848 L61.8919802,24.6168753 L66.8090714,24.6168753 L66.8090714,52.6957848" id="Fill-5" fill="#FFFFFF"></path>
                <g id="Group-4" transform="translate(132.000000, 0.000000)">
                    <path d="M19.4598492,8.76131778 C16.0472976,5.87839832 13.1248413,0.150856245 13.1248413,0.150856245 C6.0922381,9.50361043 1.52493254,23.1679227 1.03516667,26.0868079 C6.14559524,18.0677827 16.0640952,10.6718305 19.4598492,8.76131778" id="Fill-6" fill="#ADECF9"></path>
                    <path d="M25.1687341,10.9648846 C14.6794444,11.4427626 0.592170635,28.1468448 0.592170635,28.1468448 C5.30637302,25.2023174 11.088377,22.9574566 20.6729008,21.7322907 C28.5816151,20.7232523 34,21.738285 34,21.738285 C31.2847143,18.7461363 27.5987897,15.6437593 25.1687341,10.9648846" id="Fill-7" fill="#E2FBFF"></path>
                </g>
            </g>
        </g>
    </g>
</svg>